<?xml version="1.0" encoding="UTF-8"?>
<svg id="Layer_1" data-name="Layer 1" xmlns="http://www.w3.org/2000/svg" viewBox="0 0 300.24 96.35">
  <defs>
    <filter id="resume-card-shadow" x="-35%" y="-35%" width="170%" height="180%">
      <feDropShadow dx="1.6" dy="3.8" stdDeviation="2.2" flood-color="#000000" flood-opacity="0.42"/>
    </filter>
  </defs>
  <g class="resume-card resume-card--left" filter="url(#resume-card-shadow)">
    <path class="resume-fill-white" d="M11.95,23.85h96.36c5.2,0,9.42,4.22,9.42,9.42v37.23c0,5.2-4.22,9.42-9.42,9.42H2.53v-46.65c0-5.2,4.22-9.42,9.42-9.42Z" transform="translate(5.53 -5.8) rotate(5.78)"/>
    <image
      class="resume-card-star-icon"
      href="__RESUME_STAR__"
      x="-11"
      y="-11"
      width="22"
      height="22"
      transform="translate(36 50.6) rotate(5.78)"
    />
    <path class="resume-fill-mint" d="M0,73.97l1.52-14.99c2.35,3.03,4.79,6.09,7.33,9.19,2.06,2.51,4.11,4.95,6.15,7.32l-14.99-1.52Z"/>
    <path class="resume-fill-gray" d="M16.47,60.94l-1.47,14.54c-2.37-1.74-5.38-4.32-8.26-7.99-2.44-3.1-4.09-6.1-5.21-8.52,4.98.66,9.96,1.31,14.95,1.97Z"/>
  </g>
  <g class="resume-card resume-card--right" filter="url(#resume-card-shadow)">
    <path class="resume-fill-white" d="M176.69,16.05h108.67c5.2,0,9.42,4.22,9.42,9.42v53.94h-118.09c-5.2,0-9.42-4.22-9.42-9.42V25.46c0-5.2,4.22-9.42,9.42-9.42Z" transform="translate(-4.82 52.78) rotate(-12.9)"/>
    <path
      class="resume-fill-ink"
      transform="translate(258.2 47.2) rotate(-12.9)"
      d="M0 6.8c0 0-8.6-5.4-8.6-10.2 0-3.3 2.6-5.4 5.3-5.4 1.6 0 2.9.8 3.3 2.1.4-1.3 1.7-2.1 3.3-2.1 2.7 0 5.3 2.1 5.3 5.4 0 4.8-8.6 10.2-8.6 10.2z"
    />
    <path class="resume-fill-mint" d="M300.24,64.35l-14.68,3.4c2.11-3.2,4.22-6.49,6.33-9.9,1.71-2.76,3.36-5.49,4.95-8.18l3.4,14.68Z"/>
    <path class="resume-fill-gray" d="M282.61,52.96l14.24-3.29c-.88,2.8-2.36,6.48-4.9,10.4-2.15,3.31-4.45,5.84-6.38,7.68-.98-4.93-1.97-9.86-2.95-14.78Z"/>
  </g>
  <g class="resume-card resume-card--center" filter="url(#resume-card-shadow)">
    <path class="resume-fill-white" d="M99.51,4.93h101.13c5.18,0,9.39,4.21,9.39,9.39v76.21h-110.52c-5.18,0-9.39-4.21-9.39-9.39V14.32c0-5.18,4.21-9.39,9.39-9.39Z" transform="translate(5.57 -14.88) rotate(5.78)"/>
    <g>
      <path class="resume-fill-ink" d="M134.9,29.53c.94-9.3,9.25-16.08,18.55-15.14s16.08,9.25,15.14,18.55c-.94,9.3-9.25,16.08-18.55,15.14s-16.08-9.25-15.14-18.55Z"/>
      <path class="resume-fill-ink" d="M120.08,74.97c1.51-14.89,14.8-25.73,29.68-24.22,14.89,1.51,25.73,14.8,24.22,29.68-.19,1.86-1.85,3.22-3.71,3.03l-47.17-4.78c-1.86-.19-3.22-1.85-3.03-3.71Z"/>
    </g>
    <path class="resume-fill-mint" d="M205.4,96.34l-14.99-1.52c3.03-2.35,6.09-4.79,9.19-7.33,2.51-2.06,4.95-4.11,7.32-6.15l-1.52,14.99Z"/>
    <path class="resume-fill-gray" d="M192.38,79.87l14.54,1.47c-1.74,2.37-4.32,5.38-7.99,8.26-3.1,2.44-6.1,4.09-8.52,5.21.66-4.98,1.31-9.96,1.97-14.95Z"/>
  </g>
</svg>
